<?xml version="1.0" encoding="utf-8"?>
<!-- Generator: Adobe Illustrator 16.0.0, SVG Export Plug-In . SVG Version: 6.00 Build 0)  -->
<!DOCTYPE svg PUBLIC "-//W3C//DTD SVG 1.1//EN" "http://www.w3.org/Graphics/SVG/1.1/DTD/svg11.dtd">
<svg version="1.1" id="Layer_1" xmlns="http://www.w3.org/2000/svg" xmlns:xlink="http://www.w3.org/1999/xlink" x="0px" y="0px"
	 width="1800px" height="2400px" viewBox="0 0 1800 2400" enable-background="new 0 0 1800 2400" xml:space="preserve">
<path id="Channel7-31" stroke="#000000" stroke-miterlimit="10" d="M793,966.5l0.769,223.5"/>
<path id="Channel13-33" stroke="#000000" stroke-miterlimit="10" d="M918.5,1200V966.5"/>
<path id="Channel29-46" fill="none" stroke="#000000" stroke-miterlimit="10" d="M918.5,1335.5V1857"/>
<path id="Channel28-38" fill="none" stroke="#000000" stroke-miterlimit="10" d="M756.5,2334.5L290,1962"/>
<path id="Channel39-55" fill="none" stroke="#000000" stroke-miterlimit="10" d="M936.5,2352.5L1409,1958"/>
<path id="Channel19-49" fill="none" stroke="#000000" stroke-miterlimit="10" d="M936.5,2289.5L1413,1889"/>
<path id="Channel32-54" fill="none" stroke="#000000" stroke-miterlimit="10" d="M756.5,2280.5L281,1891"/>
<path id="Channel42-53" fill="none" stroke="#000000" stroke-miterlimit="10" d="M0,0"/>
<path id="Channel3-60" fill="none" stroke="#000000" stroke-miterlimit="10" d="M0,0"/>
<path id="Channel9-52" fill="none" stroke="#000000" stroke-miterlimit="10" d="M0,0"/>
<path id="Channel17-62" fill="none" stroke="#000000" stroke-miterlimit="10" d="M792.5,786.5v-234"/>
<path id="Channel47-64" fill="none" stroke="#000000" stroke-miterlimit="10" d="M792.579,399.501l-0.174-108.002"/>
<path id="Channel11-56" fill="none" stroke="#000000" stroke-miterlimit="10" d="M918.5,786.5v-234"/>
<path id="Channel4-63" fill="none" stroke="#000000" stroke-miterlimit="10" d="M918.5,399.5v-108"/>
<path id="Channel24-61" stroke="#000000" stroke-miterlimit="10" d="M855.5,399.5v-108"/>
<path id="Channel12-22" stroke="#000000" stroke-miterlimit="10" d="M1395.5,1712.911L963.5,876.5"/>
<path id="Channel2-14" stroke="#000000" stroke-miterlimit="10" d="M0,0"/>
<path id="Channel5-15" stroke="#000000" stroke-miterlimit="10" d="M792.5,1335.5v522"/>
<path id="Channel1-8" stroke="#000000" stroke-miterlimit="10" d="M855.5,966.5V1117"/>
<path id="Channel21-45" stroke="#000000" stroke-miterlimit="10" d="M954.5,966.5l143.811,375.576"/>
<path id="Channel6-59" stroke="#000000" stroke-miterlimit="10" d="M973,1939.553l217.504-101.027"/>
<path id="Channel27-50" fill="none" stroke="#000000" stroke-miterlimit="10" d="M494.746,1836.822L737,1939.553"/>
<path id="Channel18-58" fill="none" stroke="#000000" stroke-miterlimit="10" d="M756.5,2397.5L250,2000"/>
<path id="Channel30-41" fill="none" stroke="#000000" stroke-miterlimit="10" d="M935.167,2400L1442,2000"/>
<path id="Channel16-48" fill="none" stroke="#000000" stroke-miterlimit="10" d="M249.585,1680.759L747.5,768.5"/>
<path id="Channel35-36" fill="none" stroke="#000000" stroke-miterlimit="10" d="M1442.26,1676.679L963.5,768.5"/>
<path id="Channel23-43" stroke="#000000" stroke-miterlimit="10" d="M855.509,660.5l0.169,126"/>
<path id="Channel25-51" fill="none" stroke="#000000" stroke-miterlimit="10" d="M956.531,1314.086l71.168,99.622"/>
<path id="Channel26-44" fill="none" stroke="#000000" stroke-miterlimit="10" d="M381.116,1813.561l551.741-303.052"/>
<path id="Channel10-20" fill="none" stroke="#000000" stroke-miterlimit="10" d="M0,0"/>
<path id="Channel20-57" fill="none" stroke="#000000" stroke-miterlimit="10" d="M756.5,966.5l-420.597,769.191"/>
<path id="Channel10-57" fill="none" stroke="#000000" stroke-miterlimit="10" d="M0,0"/>
<path id="Channel34-57" fill="none" stroke="#000000" stroke-miterlimit="10" d="M335.903,1735.691l102.75-190.444 M737,1835
	l-298.347-289.753"/>
<path id="Channel10-57_1_" fill="none" stroke="#000000" stroke-miterlimit="10" d="M584,1273.5l-248.097,462.191 M584,1274.5h119"
	/>
<path id="Channel10-20" fill="none" stroke="#000000" stroke-miterlimit="10" d="M757.208,965L584,1273.5 M584,1273.5h130.455"/>
<path id="Channel20-34" fill="none" stroke="#000000" stroke-miterlimit="10" d="M438.653,1539.636L742.409,1835 M438.653,1539.636
	L747.5,966.5"/>
<path id="Channel10-34" fill="none" stroke="#000000" stroke-miterlimit="10" d="M438.653,1545.247L737,1835 M438.653,1545.247
	L584,1273.5 M584,1273.5l143,1.495"/>
<path id="Channel2-14" fill="none" stroke="#000000" stroke-miterlimit="10" d="M855.678,1406.328L855,1857.5"/>
<path id="Channel2-14" fill="none" stroke="#000000" stroke-miterlimit="10" d="M855.677,1433.328"/>
<path id="Channel37-40" stroke="#000000" stroke-miterlimit="10" d="M1305.5,1758.5"/>
<path id="Head" fill="#FCEE21" d="M1017.5,309.951H711.048L871.186,3.5L1017.5,309.951z"/>
<path id="Throat" fill="#603813" d="M969,768.5v218H742v-218H969z"/>
<path id="G" fill="#FCEE21" d="M1004.362,1274.995l-148.686,158.333l-169.116-160.035l169.116-156.631L1004.362,1274.995z"/>
<path id="Ego" fill="#FF0000" d="M932.857,1510.509l164.858-168.265l153.51,167.696L932.857,1510.509z"/>
<path id="Ajna" fill="#39B54A" d="M711.5,381.5h305.55L857.384,687.049L711.5,381.5z"/>
<path id="Spleen" fill="#603813" d="M250,2000v-319l244.746,155.822"/>
<path id="Solar_Plexus" fill="#603813" d="M1190.504,1838.524L1442,1672v328"/>
<path id="Sacral" fill="#FF0000" d="M973,2067H737v-232h236V2067z"/>
<path id="Root" fill="#603813" d="M961,2400H740v-217h221V2400z"/>
</svg>
